# AST/ASF file generated using VICON BodyLanguage
# -----------------------------------------------
:version 1.10
:name VICON
:units
  mass 1.0
  length 0.45
  angle deg
:documentation
   .ast/.asf automatically generated from VICON data using
   VICON BodyBuilder and BodyLanguage model FoxedUp or BRILLIANT.MOD
:root
   order TX TY TZ RX RY RZ
   axis XYZ
   position 0 0 0  
   orientation 0 -0 0 
:bonedata
  begin
     id 1 
     name lhipjoint
     direction 0.500677 -0.737119 0.453848 
     length 2.34727 
     axis 0 -0 0  XYZ
  end
  begin
     id 2 
     name lfemur
     direction 0.34202 -0.939693 0  
     length 7.53653  
     axis 0 -0 20  XYZ
    dof rx ry rz
    limits (-160.0 20.0)
           (-70.0 70.0)
           (-60.0 70.0)
  end
  begin
     id 3 
     name ltibia
     direction 0.34202 -0.939693 0   
     length 6.85572   
     axis 0 -0 20   XYZ
    dof rx
    limits (-10.0 170.0)
  end
  begin
     id 4 
     name lfoot
     direction 0.155313 -0.426718 0.890949   
     length 2.18324   
     axis -90 -1.13533e-015 20   XYZ
    dof rx rz
    limits (-45.0 90.0)
           (-70.0 20.0)
  end
  begin
     id 5 
     name ltoes
     direction 1.53474e-011 -4.21647e-011 1   
     length 1.06748   
     axis -90 -1.13533e-015 20   XYZ
    dof rx
    limits (-90.0 20.0)
  end
  begin
     id 6 
     name rhipjoint
     direction -0.632471 -0.659587 0.406111   
     length 2.62319  
     axis 0 -0 0  XYZ 
  end
  begin
     id 7 
     name rfemur
     direction -0.34202 -0.939693 0   
     length 7.21735   
     axis 0 -0 -20   XYZ
    dof rx ry rz
    limits (-160.0 20.0)
           (-70.0 70.0)
           (-70.0 60.0)
  end
  begin
     id 8 
     name rtibia
     direction -0.34202 -0.939693 0   
     length 7.02558   
     axis 0 -0 -20   XYZ
    dof rx
    limits (-10.0 170.0)
 end
 begin
     id 9 
     name rfoot
     direction -0.16057 -0.441164 0.882945   
     length 2.10014  
     axis -90 1.13533e-015 -20   XYZ
    dof rx rz
    limits (-45.0 90.0)
           (-20.0 70.0)
  end
  begin
     id 10 
     name rtoes
     direction -1.53553e-011 -4.2192e-011 1   
     length 1.02554   
     axis -90 1.13533e-015 -20   XYZ
    dof rx
    limits (-90.0 20.0)
  end
  begin
     id 11 
     name lowerback
     direction 0.0401429 0.998861 -0.0258085   
     length 1.80848   
     axis 0 -0 0   XYZ
    dof rx ry rz
    limits (-20.0 45.0)
           (-30.0 30.0)
           (-30.0 30.0)
  end
  begin
     id 12 
     name upperback
     direction -0.0130978 0.999914 -0.000352645   
     length 1.8116   
     axis 0 -0 0   XYZ
    dof rx ry rz
    limits (-20.0 45.0)
           (-30.0 30.0)
           (-30.0 30.0)
  end
  begin
     id 13 
     name thorax
     direction -0.0300198 0.999453 0.0138573   
     length 1.81778   
     axis 0 -0 0   XYZ
    dof rx ry rz
    limits (-20.0 45.0)
           (-30.0 30.0)
           (-30.0 30.0)
  end
  begin
     id 14 
     name lowerneck
     direction -0.0401726 0.999191 -0.00173647   
     length 2.10594   
     axis 0 -0 0   XYZ
    dof rx ry rz
    limits (-20.0 45.0)
           (-30.0 30.0)
           (-30.0 30.0)
  end
  begin
     id 15 
     name upperneck
     direction 0.0119835 0.998501 0.0534085   
     length 2.07325   
     axis 0 -0 0   XYZ
    dof rx ry rz
    limits (-20.0 45.0)
           (-30.0 30.0)
           (-30.0 30.0)
  end
  begin
     id 16
     name head
     direction 0.00628309 0.999826 0.0175921  
     length 2.15096  
     axis 0 -0 0   XYZ
    dof rx ry rz
    limits (-20.0 45.0)
           (-30.0 30.0)
           (-30.0 30.0)
  end
  begin
     id 17 
     name lclavicle
     direction 0.895501 0.429681 -0.115981  
     length 4.18092  
     axis 0 -0 0   XYZ
    dof ry rz
    limits (-20.0 10.0)
           (0.0 20.0)
  end
  begin
     id 18 
     name lhumerus
     direction 1 -4.48961e-011 -3.38433e-028   
     length 5.77237   
     axis 180 -30 -90   XYZ
    dof rx ry rz
    limits (-60.0 90.0)
           (-90.0 90.0)
           (-90.0 90.0)
  end
  begin
     id 19
     name lradius
     direction 1 -4.4901e-011 1.11983e-026   
     length 2.91878   
     axis 180 -30 -90   XYZ
    dof rx
    limits (-10.0 170.0)
  end
  begin
     id 20
     name lwrist
     direction 1 -4.48934e-011 1.88176e-026   
     length 1.45939   
     axis -1.23311e-014 90 90   XYZ
    dof ry
    limits (-180.0 0.0)
 end
  begin
     id 21 
     name lhand
     direction 1 -4.4895e-011 3.76352e-026   
     length 1.06566   
     axis -2.40147e-014 90 90   XYZ
    dof rx rz
    limits (-90.0 90.0)
           (-45.0 45.0)
  end
  begin
     id 22 
     name lfingers
     direction 1 -4.49005e-011 7.52705e-026   
     length 0.859162   
     axis -4.80295e-014 90 90   XYZ
    dof rx
    limits (0.0 90.0)
  end
  begin
     id 23
     name lthumb
     direction 0.707107 -6.34885e-011 0.707107   
     length 1.23359   
     axis -90 45 -9.86935e-015   XYZ
    dof rx rz
    limits (-45.0 45.0)
           (-45.0 45.0)
  end
  begin
     id 24 
     name rclavicle
     direction -0.91006 0.40451 -0.0903492   
     length 4.23293  
     axis 0 -0 0   XYZ 
    dof ry rz
    limits (-10.0 20.0)
           (-20.0 0.0)
  end
  begin
     id 25 
     name rhumerus
     direction -1 -4.4897e-011 1.7415e-027  
     length 5.49854   
     axis 180 30 90   XYZ
    dof rx ry rz
    limits (-90.0 60.0)
           (-90.0 90.0)
           (-90.0 90.0)
  end
  begin
     id 26 
     name rradius
     direction -1 -4.48963e-011 1.21259e-026   
     length 3.1186   
     axis 180 30 90   XYZ
    dof rx
    limits (-10.0 170.0)
  end
  begin
     id 27 
     name rwrist
     direction -1 -4.48967e-011 1.88176e-026   
     length 1.5593   
     axis -1.23311e-014 -90 -90   XYZ
    dof ry
    limits (-180.0 0.0)
  end
  begin
     id 28
     name rhand
     direction -1 -4.4895e-011 3.76352e-026   
     length 0.71207   
     axis -2.40147e-014 -90 -90   XYZ
    dof rx rz
    limits (-90.0 90.0)
           (-45.0 45.0)
  end
  begin
     id 29
     name rfingers
     direction -1 -4.49005e-011 7.52705e-026   
     length 0.574089   
     axis -4.80295e-014 -90 -90   XYZ
    dof rx
    limits (0.0 90.0)
  end
  begin
     id 30
     name rthumb
     direction -0.707107 -6.34982e-011 0.707107   
     length 0.824281   
     axis -90 -45 9.86935e-015   XYZ
    dof rx rz
    limits (-45.0 45.0)
           (-45.0 45.0)
  end
:hierarchy
  begin
    root lhipjoint rhipjoint lowerback
    lhipjoint lfemur
    lfemur ltibia
    ltibia lfoot
    lfoot ltoes
    rhipjoint rfemur
    rfemur rtibia
    rtibia rfoot
    rfoot rtoes
    lowerback upperback
    upperback thorax
    thorax lowerneck lclavicle rclavicle
    lowerneck upperneck
    upperneck head
    lclavicle lhumerus
    lhumerus lradius
    lradius lwrist
    lwrist lhand lthumb
    lhand lfingers
    rclavicle rhumerus
    rhumerus rradius
    rradius rwrist
    rwrist rhand rthumb
    rhand rfingers
  end

#!OML:ASF C:\ViconDB\ViconDB\414\Spring2016\042216\male.ASF
:FULLY-SPECIFIED
:DEGREES
583
root 44.8865 17.7916 12.2193 -26.7982 85.1988 -27.8154
lowerback -2.58288 -1.44357 4.30151
upperback -1.23777 -2.00901 -0.634816
thorax 0.00401491 -1.02185 -3.11164
lowerneck -4.05953 0.239583 -4.46334
upperneck 7.74962 0.300409 4.79399
head 3.22519 0.213591 2.38976
rclavicle 3.17062e-014 3.97569e-016
rhumerus -29.7087 -3.26134 -93.956
rradius 30.4541
rwrist 29.7784
rhand 12.1581 -17.516
rfingers 7.12502
rthumb 37.1702 -43.5362
lclavicle 3.17062e-014 3.97569e-016
lhumerus -41.58 20.9922 80.8062
lradius 30.5079
lwrist -15.3623
lhand -8.65841 12.1122
lfingers 7.12502
lthumb 17.2752 41.3643
rfemur -7.97248 6.44167 23.3895
rtibia 22.3258
rfoot -16.2253 -4.03825
rtoes -7.57618
lfemur -7.25258 -2.9119 -18.2262
ltibia 26.4149
lfoot -26.5141 13.1013
ltoes -10.0048
584
root 44.8952 17.7946 12.2141 -25.8956 85.3741 -27.0051
lowerback -2.6479 -1.41784 4.3204
upperback -1.28138 -1.9765 -0.701875
thorax -0.00478444 -1.00667 -3.19189
lowerneck -4.08236 0.223217 -4.37965
upperneck 7.87505 0.279215 4.69593
head 3.27252 0.202688 2.34266
rclavicle 3.803e-014 -8.15017e-015
rhumerus -29.8661 -3.30979 -93.9793
rradius 30.356
rwrist 29.9527
rhand 12.6443 -17.3829
rfingers 7.12502
rthumb 37.6299 -43.2818
lclavicle 3.803e-014 -8.15017e-015
lhumerus -41.443 20.6786 80.8521
lradius 30.4557
lwrist -16.1322
lhand -8.09012 12.1418
lfingers 7.12502
lthumb 17.8221 41.3451
rfemur -8.1292 5.96632 23.182
rtibia 22.5025
rfoot -16.3944 -3.70927
rtoes -7.60716
lfemur -7.25925 -3.04982 -18.4035
ltibia 26.2783
lfoot -26.485 13.0885
ltoes -10.0051
585
root 44.9048 17.7948 12.2133 -24.9611 85.551 -26.1254
lowerback -2.70464 -1.39152 4.2524
upperback -1.31049 -1.94129 -0.735708
thorax 0.00127946 -0.989051 -3.18905
lowerneck -4.07465 0.19906 -4.43337
upperneck 7.96067 0.248032 4.71411
head 3.30282 0.186639 2.35905
rclavicle 4.29748e-014 4.96962e-015
rhumerus -30.0308 -3.29747 -94.0362
rradius 30.2223
rwrist 29.4578
rhand 12.0527 -17.7019
rfingers 7.12502
rthumb 37.0706 -43.7481
lclavicle 4.29748e-014 4.96962e-015
lhumerus -41.3073 20.6219 80.8601
lradius 30.3319
lwrist -16.8278
lhand -7.96195 12.0315
lfingers 7.12502
lthumb 17.9454 41.2236
rfemur -8.13521 5.64394 23.0417
rtibia 22.5408
rfoot -16.504 -3.71548
rtoes -8.1846
lfemur -7.29598 -3.07164 -18.5642
ltibia 26.2667
lfoot -26.521 13.039
ltoes -10.0773
586
root 44.914 17.792 12.2205 -26.5354 85.5845 -27.6931
lowerback -2.70438 -1.36519 4.26839
upperback -1.31566 -1.90649 -0.666036
thorax 0.00072109 -0.971454 -3.12541
lowerneck -4.08423 0.172707 -4.58822
upperneck 8.06198 0.213911 4.82824
head 3.34373 0.169855 2.4274
rclavicle 4.74723e-014 -4.96962e-015
rhumerus -30.2147 -3.44685 -93.9647
rradius 30.0424
rwrist 29.9227
rhand 12.0686 -17.5301
rfingers 7.12502
rthumb 37.0856 -43.5724
lclavicle 4.74723e-014 -4.96962e-015
lhumerus -41.1488 20.6277 80.8377
lradius 30.1646
lwrist -17.5938
lhand -7.90044 11.2527
lfingers 7.12502
lthumb 18.0046 40.4393
rfemur -8.12644 6.34252 23.1985
rtibia 22.7051
rfoot -16.7332 -4.42991
rtoes -7.94076
lfemur -7.21631 -3.01847 -18.4303
ltibia 26.1414
lfoot -26.4982 12.9042
ltoes -10.0063
587
root 44.9233 17.7861 12.2221 -32.4323 85.4529 -33.4896
lowerback -2.6107 -1.34471 4.76721
upperback -1.27442 -1.88768 -0.53751
thorax -0.0203743 -0.963754 -3.2706
lowerneck -4.09511 0.148236 -4.6854
upperneck 8.13198 0.181835 4.90094
head 3.37331 0.154135 2.47056
rclavicle 1.38528e-014 -3.57812e-015
rhumerus -30.3733 -3.61841 -93.9324
rradius 29.8352
rwrist 30.307
rhand 12.5257 -17.4738
rfingers 7.12502
rthumb 37.5178 -43.4026
lclavicle 1.38528e-014 -3.57812e-015
lhumerus -40.9561 18.6704 81.8952
lradius 30.758
lwrist -16.2965
lhand -7.45059 12.5667
lfingers 7.12502
lthumb 18.4374 41.713
rfemur -8.0412 6.62469 23.7253
rtibia 22.9089
rfoot -16.93 -4.77187
rtoes -7.56489
lfemur -7.00772 -3.00912 -17.9187
ltibia 25.9854
lfoot -26.4654 12.7582
ltoes -9.9692
588
root 44.9211 17.7964 12.1688 -23.2057 86.272 -24.5255
lowerback -2.74465 -1.4252 4.65963
upperback -1.39278 -1.99451 -0.969839
thorax -0.0891623 -1.02217 -3.66035
lowerneck -4.13855 0.168434 -4.65623
upperneck 8.22083 0.210022 4.86637
head 3.41037 0.16845 2.45666
rclavicle 7.55382e-015 -6.55989e-015
rhumerus -30.4865 -3.55132 -93.9523
rradius 29.5307
rwrist 30.5252
rhand 12.3442 -17.3264
rfingers 7.12502
rthumb 37.3462 -43.3006
lclavicle 7.55382e-015 -6.55989e-015
lhumerus -40.7096 19.9384 81.1194
lradius 30.0342
lwrist -18.5131
lhand -6.90578 11.8208
lfingers 7.12502
lthumb 18.9614 40.9166
rfemur -8.52144 3.89148 22.2913
rtibia 23.1371
rfoot -16.9968 -2.41506
rtoes -7.74045
lfemur -7.25618 -2.94855 -19.1508
ltibia 25.8088
lfoot -26.3701 12.4372
ltoes -10.0249
